<svg xmlns="http://www.w3.org/2000/svg" xmlns:xlink="http://www.w3.org/1999/xlink" width="500" zoomAndPan="magnify" viewBox="0 0 375 374.999991" height="500" preserveAspectRatio="xMidYMid meet" version="1.0"><defs><g/><clipPath id="f6f45fb7c2"><path d="M 0.914062 0 L 374.085938 0 L 374.085938 375 L 0.914062 375 Z M 0.914062 0 " clip-rule="nonzero"/></clipPath><clipPath id="a4964f9d61"><path d="M 38.414062 0 L 336.585938 0 C 346.53125 0 356.070312 3.949219 363.105469 10.984375 C 370.136719 18.015625 374.085938 27.554688 374.085938 37.5 L 374.085938 337.5 C 374.085938 347.445312 370.136719 356.984375 363.105469 364.015625 C 356.070312 371.050781 346.53125 375 336.585938 375 L 38.414062 375 C 28.46875 375 18.929688 371.050781 11.894531 364.015625 C 4.863281 356.984375 0.914062 347.445312 0.914062 337.5 L 0.914062 37.5 C 0.914062 27.554688 4.863281 18.015625 11.894531 10.984375 C 18.929688 3.949219 28.46875 0 38.414062 0 Z M 38.414062 0 " clip-rule="nonzero"/></clipPath></defs><g clip-path="url(#f6f45fb7c2)"><g clip-path="url(#a4964f9d61)"><path fill="#000000" d="M 0.914062 0 L 374.085938 0 L 374.085938 374.632812 L 0.914062 374.632812 Z M 0.914062 0 " fill-opacity="1" fill-rule="nonzero"/></g></g><g fill="#ffffff" fill-opacity="1"><g transform="translate(17.298398, 277.401341)"><g><path d="M 103.75 0 L 65.84375 0 L 65.84375 -103.75 L 66.21875 -120.78125 L 66.828125 -139.421875 C 60.535156 -133.128906 56.160156 -129.003906 53.703125 -127.046875 L 33.109375 -110.484375 L 14.84375 -133.296875 L 72.59375 -179.28125 L 103.75 -179.28125 Z M 103.75 0 "/></g></g></g><path stroke-linecap="round" transform="matrix(0.75, -0.000000000000001395, 0.000000000000001395, 0.75, 153.523602, 121.904757)" fill="none" stroke-linejoin="miter" d="M 9.999781 10.001992 L 80.603952 10.001992 " stroke="#ffffff" stroke-width="20" stroke-opacity="1" stroke-miterlimit="4"/><path stroke-linecap="round" transform="matrix(0.75, -0.000000000000001395, 0.000000000000001395, 0.75, 153.523602, 160.634915)" fill="none" stroke-linejoin="miter" d="M 9.999781 10.002406 L 80.603952 10.002406 " stroke="#ffffff" stroke-width="20" stroke-opacity="1" stroke-miterlimit="4"/><path stroke-linecap="round" transform="matrix(0.75, -0.00000000000000279, 0.00000000000000279, 0.75, 153.523602, 199.365061)" fill="none" stroke-linejoin="miter" d="M 9.999781 9.997627 L 80.603952 9.997627 " stroke="#ffffff" stroke-width="20" stroke-opacity="1" stroke-miterlimit="4"/><path stroke-linecap="round" transform="matrix(0.75, -0.00000000000000093, 0.00000000000000093, 0.75, 153.523602, 238.095205)" fill="none" stroke-linejoin="miter" d="M 9.999781 9.99806 L 80.603952 9.99806 " stroke="#ffffff" stroke-width="20" stroke-opacity="1" stroke-miterlimit="4"/><g fill="#ffffff" fill-opacity="1"><g transform="translate(357.696631, 97.594255)"><g><path d="M -103.75 0 L -65.84375 0 L -65.84375 103.75 L -66.21875 120.78125 L -66.828125 139.421875 C -60.535156 133.128906 -56.160156 129.003906 -53.703125 127.046875 L -33.109375 110.484375 L -14.84375 133.296875 L -72.59375 179.28125 L -103.75 179.28125 Z M -103.75 0 "/></g></g></g></svg>